<?xml version="1.0" ?>
<svg xmlns="http://www.w3.org/2000/svg" width="1000" height="800" viewBox="0 0 800 1000">
<path d="m 143.60378,323.4691 340.4507,-253.236389 34.40508,-7.068942 24.27446,7.046493 41.41209,18.472555 43.18562,30.682233 47.23828,50.22378 40.87885,26.27819 114.14959,42.73756 111.49627,28.63825 24.08599,22.82358 20.72842,29.484 -6.02945,38.80453 -208.10155,290.12809 -26.11279,2.46891 L 529.78462,541.92747 155.59271,361.6804 139.21222,341.76497 Z" id="path178" style="fill:none;stroke:#000000;stroke-width:3px;stroke-linecap:butt;stroke-linejoin:miter;stroke-opacity:1"/>
<path d="M 178 346 L 229 276" id="row_528_hit" style="fill:none;stroke:blue;stroke-opacity:0;stroke-width:20"/>
<path d="M 200 363 L 292 232" id="row_527_hit" style="fill:none;stroke:blue;stroke-opacity:0;stroke-width:20"/>
<path d="M 220 376 L 347 190" id="row_526_hit" style="fill:none;stroke:blue;stroke-opacity:0;stroke-width:20"/>
<path d="M 244 388 L 412 145" id="row_525_hit" style="fill:none;stroke:blue;stroke-opacity:0;stroke-width:20"/>
<path d="M 267 399 L 466 106" id="row_524_hit" style="fill:none;stroke:blue;stroke-opacity:0;stroke-width:20"/>
<path d="M 290 409 L 518 63" id="row_523_hit" style="fill:none;stroke:blue;stroke-opacity:0;stroke-width:20"/>
<path d="M 313 419 L 543 70" id="row_522_hit" style="fill:none;stroke:blue;stroke-opacity:0;stroke-width:20"/>
<path d="M 328 428 L 558 92" id="row_521_hit" style="fill:none;stroke:blue;stroke-opacity:0;stroke-width:20"/>
<path d="M 345 438 L 580 106" id="row_520_hit" style="fill:none;stroke:blue;stroke-opacity:0;stroke-width:20"/>
<path d="M 366 449 L 599 113" id="row_519_hit" style="fill:none;stroke:blue;stroke-opacity:0;stroke-width:20"/>
<path d="M 390 455 L 615 130" id="row_518_hit" style="fill:none;stroke:blue;stroke-opacity:0;stroke-width:20"/>
<path d="M 413 465 L 636 150" id="row_517_hit" style="fill:none;stroke:blue;stroke-opacity:0;stroke-width:20"/>
<path d="M 428 479 L 653 167" id="row_516_hit" style="fill:none;stroke:blue;stroke-opacity:0;stroke-width:20"/>
<path d="M 458 490 L 675 170" id="row_515_hit" style="fill:none;stroke:blue;stroke-opacity:0;stroke-width:20"/>
<path d="M 472 501 L 689 195" id="row_514_hit" style="fill:none;stroke:blue;stroke-opacity:0;stroke-width:20"/>
<path d="M 499 509 L 715 196" id="row_513_hit" style="fill:none;stroke:blue;stroke-opacity:0;stroke-width:20"/>
<path d="M 521 520 L 733 219" id="row_512_hit" style="fill:none;stroke:blue;stroke-opacity:0;stroke-width:20"/>
<path d="M 541 529 L 755 230" id="row_511_hit" style="fill:none;stroke:blue;stroke-opacity:0;stroke-width:20"/>
<path d="M 560 542 L 781 239" id="row_510_hit" style="fill:none;stroke:blue;stroke-opacity:0;stroke-width:20"/>
<path d="M 583 552 L 802 248" id="row_9_hit" style="fill:none;stroke:blue;stroke-opacity:0;stroke-width:20"/>
<path d="M 606 562 L 830 239" id="row_8_hit" style="fill:none;stroke:blue;stroke-opacity:0;stroke-width:20"/>
<path d="M 627 570 L 857 261" id="row_7_hit" style="fill:none;stroke:blue;stroke-opacity:0;stroke-width:20"/>
<path d="M 651 581 L 878 266" id="row_6_hit" style="fill:none;stroke:blue;stroke-opacity:0;stroke-width:20"/>
<path d="M 675 596 L 903 273" id="row_5_hit" style="fill:none;stroke:blue;stroke-opacity:0;stroke-width:20"/>
<path d="M 694 607 L 923 277" id="row_4_hit" style="fill:none;stroke:blue;stroke-opacity:0;stroke-width:20"/>
<path d="M 715 615 L 948 295" id="row_3_hit" style="fill:none;stroke:blue;stroke-opacity:0;stroke-width:20"/>
<path d="M 737 630 L 963 312" id="row_502_hit" style="fill:none;stroke:blue;stroke-opacity:0;stroke-width:20"/>
<path d="M 758 637 L 965 350" id="row_501_hit" style="fill:none;stroke:blue;stroke-opacity:0;stroke-width:20"/>
<path d="M 178 346 L 229 276" id="row_528" style="fill:none;stroke:#000;stroke-width:6"/>
<path d="M 200 363 L 292 232" id="row_527" style="fill:none;stroke:#000;stroke-width:6"/>
<path d="M 220 376 L 347 190" id="row_526" style="fill:none;stroke:#000;stroke-width:6"/>
<path d="M 244 388 L 412 145" id="row_525" style="fill:none;stroke:#000;stroke-width:6"/>
<path d="M 267 399 L 466 106" id="row_524" style="fill:none;stroke:#000;stroke-width:6"/>
<path d="M 290 409 L 518 63" id="row_523" style="fill:none;stroke:#000;stroke-width:6"/>
<path d="M 313 419 L 543 70" id="row_522" style="fill:none;stroke:#000;stroke-width:6"/>
<path d="M 328 428 L 558 92" id="row_521" style="fill:none;stroke:#000;stroke-width:6"/>
<path d="M 345 438 L 580 106" id="row_520" style="fill:none;stroke:#000;stroke-width:6"/>
<path d="M 366 449 L 599 113" id="row_519" style="fill:none;stroke:#000;stroke-width:6"/>
<path d="M 390 455 L 615 130" id="row_518" style="fill:none;stroke:#000;stroke-width:6"/>
<path d="M 413 465 L 636 150" id="row_517" style="fill:none;stroke:#000;stroke-width:6"/>
<path d="M 428 479 L 653 167" id="row_516" style="fill:none;stroke:#000;stroke-width:6"/>
<path d="M 458 490 L 675 170" id="row_515" style="fill:none;stroke:#000;stroke-width:6"/>
<path d="M 472 501 L 689 195" id="row_514" style="fill:none;stroke:#000;stroke-width:6"/>
<path d="M 499 509 L 715 196" id="row_513" style="fill:none;stroke:#000;stroke-width:6"/>
<path d="M 521 520 L 733 219" id="row_512" style="fill:none;stroke:#000;stroke-width:6"/>
<path d="M 541 529 L 755 230" id="row_511" style="fill:none;stroke:#000;stroke-width:6"/>
<path d="M 560 542 L 781 239" id="row_510" style="fill:none;stroke:#000;stroke-width:6"/>
<path d="M 583 552 L 802 248" id="row_9" style="fill:none;stroke:#000;stroke-width:6"/>
<path d="M 606 562 L 830 239" id="row_8" style="fill:none;stroke:#000;stroke-width:6"/>
<path d="M 627 570 L 857 261" id="row_7" style="fill:none;stroke:#000;stroke-width:6"/>
<path d="M 651 581 L 878 266" id="row_6" style="fill:none;stroke:#000;stroke-width:6"/>
<path d="M 675 596 L 903 273" id="row_5" style="fill:none;stroke:#000;stroke-width:6"/>
<path d="M 694 607 L 923 277" id="row_4" style="fill:none;stroke:#000;stroke-width:6"/>
<path d="M 715 615 L 948 295" id="row_3" style="fill:none;stroke:#000;stroke-width:6"/>
<path d="M 737 630 L 963 312" id="row_2" style="fill:none;stroke:#000;stroke-width:6"/>
<path d="M 758 637 L 965 350" id="row_1" style="fill:none;stroke:#000;stroke-width:6"/>
<text fill="red" font-size="16">
<textPath href="#row_528" startOffset="50%" text-anchor="middle">row_528</textPath>
</text>
<text fill="red" font-size="16">
<textPath href="#row_527" startOffset="50%" text-anchor="middle">row_527</textPath>
</text>
<text fill="red" font-size="16">
<textPath href="#row_526" startOffset="50%" text-anchor="middle">row_526</textPath>
</text>
<text fill="red" font-size="16">
<textPath href="#row_525" startOffset="50%" text-anchor="middle">row_525</textPath>
</text>
<text fill="red" font-size="16">
<textPath href="#row_524" startOffset="50%" text-anchor="middle">row_524</textPath>
</text>
<text fill="red" font-size="16">
<textPath href="#row_523" startOffset="50%" text-anchor="middle">row_523</textPath>
</text>
<text fill="red" font-size="16">
<textPath href="#row_522" startOffset="50%" text-anchor="middle">row_522</textPath>
</text>
<text fill="red" font-size="16">
<textPath href="#row_521" startOffset="50%" text-anchor="middle">row_521</textPath>
</text>
<text fill="red" font-size="16">
<textPath href="#row_520" startOffset="50%" text-anchor="middle">row_520</textPath>
</text>
<text fill="red" font-size="16">
<textPath href="#row_519" startOffset="50%" text-anchor="middle">row_519</textPath>
</text>
<text fill="red" font-size="16">
<textPath href="#row_518" startOffset="50%" text-anchor="middle">row_518</textPath>
</text>
<text fill="red" font-size="16">
<textPath href="#row_517" startOffset="50%" text-anchor="middle">row_517</textPath>
</text>
<text fill="red" font-size="16">
<textPath href="#row_516" startOffset="50%" text-anchor="middle">row_516</textPath>
</text>
<text fill="red" font-size="16">
<textPath href="#row_515" startOffset="50%" text-anchor="middle">row_515</textPath>
</text>
<text fill="red" font-size="16">
<textPath href="#row_514" startOffset="50%" text-anchor="middle">row_514</textPath>
</text>
<text fill="red" font-size="16">
<textPath href="#row_513" startOffset="50%" text-anchor="middle">row_513</textPath>
</text>
<text fill="red" font-size="16">
<textPath href="#row_512" startOffset="50%" text-anchor="middle">row_512</textPath>
</text>
<text fill="red" font-size="16">
<textPath href="#row_511" startOffset="50%" text-anchor="middle">row_511</textPath>
</text>
<text fill="red" font-size="16">
<textPath href="#row_510" startOffset="50%" text-anchor="middle">row_510</textPath>
</text>
<text fill="red" font-size="16">
<textPath href="#row_509" startOffset="50%" text-anchor="middle">row_509</textPath>
</text>
<text fill="red" font-size="16">
<textPath href="#row_508" startOffset="50%" text-anchor="middle">row_508</textPath>
</text>
<text fill="red" font-size="16">
<textPath href="#row_507" startOffset="50%" text-anchor="middle">row_507</textPath>
</text>
<text fill="red" font-size="16">
<textPath href="#row_506" startOffset="50%" text-anchor="middle">row_506</textPath>
</text>
<text fill="red" font-size="16">
<textPath href="#row_505" startOffset="50%" text-anchor="middle">row_505</textPath>
</text>
<text fill="red" font-size="16">
<textPath href="#row_504" startOffset="50%" text-anchor="middle">row_504</textPath>
</text>
<text fill="red" font-size="16">
<textPath href="#row_503" startOffset="50%" text-anchor="middle">row_503</textPath>
</text>
<text fill="red" font-size="16">
<textPath href="#row_502" startOffset="50%" text-anchor="middle">row_502</textPath>
</text>
<text fill="red" font-size="16">
<textPath href="#row_501" startOffset="50%" text-anchor="middle">row_501</textPath>
</text>
</svg>
